<svg width="220" height="32" viewBox="0 0 1560 228" fill="none" xmlns="http://www.w3.org/2000/svg"><path d="M123.296 9.484h-18.968v37.938h18.968V9.484Zm28.454 0h-18.969v37.938h18.969V9.484Zm-56.907 0H75.875v37.938h18.968V9.484Zm9.485 208.656h18.968v-37.937h-18.968v37.937Zm28.453 0h18.969v-37.937h-18.969v37.937Zm-56.906 0h18.968v-37.937H75.875v37.937Zm104.328-94.843h37.937v-18.969h-37.937v18.969Zm0 28.453h37.937v-18.969h-37.937v18.969Zm0-75.875v18.969h37.937v-18.97h-37.937ZM9.484 123.297h37.938v-18.969H9.484v18.969Zm0 28.453h37.938v-18.969H9.484v18.969Zm0-56.906h37.938v-18.97H9.484v18.97Zm56.906 66.39h94.844V66.39H66.39v94.844Zm18.97-75.875h56.905v56.906H85.359V85.359ZM358.751 94.274c0 6.844-1.534 12.508-4.602 16.992-3.068 4.484-7.08 7.906-12.036 10.266l16.166 24.78h-22.184l-13.098-21.358h-41.3v21.358h-18.408V63.594h62.54a40.14 40.14 0 0 1 15.458 3.068c5.034 1.967 9.204 5.27 12.508 9.912 3.304 4.563 4.956 10.463 4.956 17.7Zm-38.114 14.16c3.933 0 7.237-.236 9.912-.708 2.674-.472 4.956-1.73 6.844-3.776 1.966-2.124 2.95-5.35 2.95-9.676 0-4.248-.984-7.394-2.95-9.44-1.967-2.045-4.327-3.343-7.08-3.894-2.675-.55-5.9-.826-9.676-.826h-38.94v28.32h38.94Zm95.746 39.058c-7.394 0-14.71-1.022-21.948-3.068-7.158-2.124-13.255-5.782-18.29-10.974-4.956-5.27-7.434-12.35-7.434-21.24 0-11.8 4.248-20.65 12.744-26.55 8.496-5.978 20.375-8.968 35.636-8.968 15.183 0 27.101 3.068 35.754 9.204 8.654 6.136 12.744 16.678 12.272 31.624h-76.11c1.102 5.428 4.091 9.322 8.968 11.682 4.878 2.36 11.446 3.54 19.706 3.54 7.316 0 13.256-.865 17.818-2.596 4.642-1.809 7.749-4.405 9.322-7.788h19.116c-1.652 8.103-6.686 14.318-15.104 18.644-8.417 4.327-19.234 6.49-32.45 6.49Zm28.792-41.89c-2.045-9.204-11.406-13.806-28.084-13.806-8.889 0-15.654 1.18-20.296 3.54-4.562 2.282-7.316 5.704-8.26 10.266h56.64Zm78.056 41.89c-15.576 0-27.612-3.028-36.108-9.086-8.496-6.057-12.744-14.789-12.744-26.196 0-11.642 4.208-20.453 12.626-26.432 8.496-6.057 20.571-9.086 36.226-9.086 14.474 0 25.724 2.478 33.748 7.434 8.102 4.878 12.822 11.918 14.16 21.122h-19.352c-1.102-3.854-3.934-6.962-8.496-9.322-4.484-2.438-11.171-3.658-20.06-3.658-9.991 0-17.425 1.652-22.302 4.956-4.799 3.304-7.198 8.26-7.198 14.868 0 13.295 9.833 19.942 29.5 19.942 8.889 0 15.615-1.14 20.178-3.422 4.562-2.36 7.394-5.506 8.496-9.44l19.234.118c-1.338 9.126-6.018 16.127-14.042 21.004-8.024 4.799-19.313 7.198-33.866 7.198Zm108.029-70.8c9.676 0 16.874 1.888 21.594 5.664 4.799 3.698 7.198 9.48 7.198 17.346h-19.116c0-3.146-1.494-5.31-4.484-6.49-2.989-1.18-6.529-1.77-10.62-1.77-5.9 0-10.974 1.22-15.222 3.658-4.248 2.36-7.788 6.254-10.62 11.682v39.53h-19.116v-68.44h19.116V88.02c4.484-3.854 9.283-6.686 14.396-8.496 5.114-1.888 10.738-2.832 16.874-2.832Zm133.93 69.62h-19.234v-11.8c-4.72 4.091-10.502 7.277-17.346 9.558-6.844 2.282-14.435 3.422-22.774 3.422-11.721 0-20.728-2.674-27.022-8.024-6.214-5.349-9.361-13.963-9.44-25.842l.236-35.754h19.116v32.568c0 7.552 1.77 13.177 5.31 16.874 3.619 3.619 9.165 5.428 16.638 5.428 4.878 0 9.755-.786 14.632-2.36 4.956-1.573 9.283-3.736 12.98-6.49 3.776-2.832 6.333-5.978 7.67-9.44v-36.58h19.234v68.44Zm21.031-73.396c-3.697 0-6.529-.55-8.496-1.652-1.966-1.18-2.95-3.58-2.95-7.198 0-3.697.984-6.096 2.95-7.198 1.967-1.18 4.799-1.77 8.496-1.77 3.619 0 6.372.59 8.26 1.77 1.967 1.102 2.95 3.5 2.95 7.198 0 3.619-.983 6.018-2.95 7.198-1.888 1.102-4.641 1.652-8.26 1.652Zm9.44 4.956v68.44h-19.116v-68.44h19.116Zm55.551 69.148c-6.451 0-11.564-.708-15.34-2.124-3.698-1.494-6.49-4.169-8.378-8.024-1.81-3.854-2.714-9.361-2.714-16.52V92.386h-18.526V77.754h18.526V63.712h19.116v14.042h35.046v14.632h-35.046v20.65c0 5.35.314 9.244.944 11.682.708 2.439 2.045 4.13 4.012 5.074 2.045.944 5.31 1.416 9.794 1.416h20.296v15.812h-27.73Zm84.417.472c-7.394 0-14.71-1.022-21.948-3.068-7.158-2.124-13.255-5.782-18.29-10.974-4.956-5.27-7.434-12.35-7.434-21.24 0-11.8 4.248-20.65 12.744-26.55 8.496-5.978 20.375-8.968 35.636-8.968 15.183 0 27.101 3.068 35.754 9.204 8.654 6.136 12.744 16.678 12.272 31.624h-76.11c1.102 5.428 4.091 9.322 8.968 11.682 4.878 2.36 11.446 3.54 19.706 3.54 7.316 0 13.256-.865 17.818-2.596 4.642-1.809 7.749-4.405 9.322-7.788h19.116c-1.652 8.103-6.686 14.318-15.104 18.644-8.417 4.327-19.234 6.49-32.45 6.49Zm28.792-41.89c-2.045-9.204-11.406-13.806-28.084-13.806-8.889 0-15.654 1.18-20.296 3.54-4.562 2.282-7.316 5.704-8.26 10.266h56.64Zm80.649-28.91c9.67 0 16.87 1.888 21.59 5.664 4.8 3.698 7.2 9.48 7.2 17.346h-19.12c0-3.146-1.49-5.31-4.48-6.49-2.99-1.18-6.53-1.77-10.62-1.77-5.9 0-10.97 1.22-15.22 3.658-4.25 2.36-7.79 6.254-10.62 11.682v39.53h-19.119v-68.44h19.119V88.02c4.48-3.854 9.28-6.686 14.39-8.496 5.12-1.888 10.74-2.832 16.88-2.832Zm125.64 24.898c4.72 1.574 8.22 4.052 10.5 7.434 2.36 3.383 3.54 7.946 3.54 13.688 0 7.631-2.16 13.492-6.49 17.582-4.25 4.012-11.25 6.018-21.01 6.018h-72.8V63.594h67.85c9.52 0 16.32 1.928 20.41 5.782 4.09 3.855 6.14 9.165 6.14 15.93 0 7.63-2.72 13.059-8.14 16.284Zm-21.48-4.13c3.54 0 6.33-.59 8.38-1.77 2.12-1.258 3.18-3.736 3.18-7.434 0-3.618-1.06-6.018-3.18-7.198-2.05-1.18-4.84-1.77-8.38-1.77h-46.37V97.46h46.37Zm6.37 33.276c3.62 0 6.49-.629 8.62-1.888 2.12-1.258 3.18-3.776 3.18-7.552s-1.06-6.293-3.18-7.552c-2.13-1.258-5-1.888-8.62-1.888h-52.74v18.88h52.74Zm134.36-36.462c0 6.844-1.53 12.508-4.6 16.992-3.07 4.484-7.08 7.906-12.04 10.266l16.17 24.78h-22.19l-13.09-21.358h-41.3v21.358h-18.41V63.594h62.54c5.35 0 10.5 1.023 15.46 3.068 5.03 1.967 9.2 5.27 12.5 9.912 3.31 4.563 4.96 10.463 4.96 17.7Zm-38.11 14.16c3.93 0 7.23-.236 9.91-.708 2.67-.472 4.95-1.73 6.84-3.776 1.97-2.124 2.95-5.35 2.95-9.676 0-4.248-.98-7.394-2.95-9.44-1.97-2.045-4.33-3.343-7.08-3.894-2.67-.55-5.9-.826-9.67-.826h-38.94v28.32h38.94Zm301.21 37.878h-25.37l-62.31-62.776v62.776h-18.4V63.594h25.6l62.07 62.422V63.594h18.41v82.718Z" fill="#000"/><path d="m1322.66 128.848-9.32 17.464h-21.71l44.48-82.718h26.08l44.49 82.718h-21.72l-9.32-17.464h-52.98Zm27.26-47.908h-1.65l-16.88 31.624h35.52l-16.99-31.624Zm85.17-17.346v82.718h-18.41V63.594h18.41Z" fill="#F02121"/></svg>